<?xml version="1.0" standalone="no"?>
<!DOCTYPE svg PUBLIC "-//W3C//DTD SVG 20010904//EN"
 "http://www.w3.org/TR/2001/REC-SVG-20010904/DTD/svg10.dtd">
<svg version="1.0" xmlns="http://www.w3.org/2000/svg"
 width="512.000000pt" height="512.000000pt" viewBox="0 0 512.000000 512.000000"
 preserveAspectRatio="xMidYMid meet">
<metadata>
Created by potrace 1.11, written by Peter Selinger 2001-2013
</metadata>
<g transform="translate(0.000000,512.000000) scale(0.100000,-0.100000)"
fill="#000000" stroke="none">
<path d="M460 5104 c-217 -46 -399 -230 -445 -449 -22 -105 -22 -4085 0 -4190
46 -221 229 -404 450 -450 106 -22 4085 -22 4190 0 221 46 404 229 450 450 22
105 22 4085 0 4190 -46 221 -229 404 -450 450 -102 21 -4095 21 -4195 -1z
m4158 -434 c18 -11 41 -34 52 -52 20 -33 20 -55 20 -2057 0 -2023 0 -2024 -21
-2057 -11 -18 -35 -42 -53 -53 -33 -21 -34 -21 -2057 -21 l-2024 0 -38 25
c-73 50 -67 -138 -67 2107 0 2001 0 2023 20 2056 11 18 34 41 52 52 33 20 55
20 2058 20 2003 0 2025 0 2058 -20z"/>
<path d="M2756 3665 c-38 -13 -99 -64 -117 -96 -10 -19 -534 -1798 -552 -1872
-13 -59 2 -125 40 -175 32 -42 114 -82 168 -82 66 1 141 43 179 103 19 28 555
1847 563 1908 4 34 0 58 -16 94 -29 65 -46 83 -106 111 -57 27 -102 29 -159 9z"/>
<path d="M1460 3394 c-46 -19 -714 -685 -742 -739 -28 -54 -28 -136 0 -190 30
-57 696 -720 744 -740 138 -57 298 48 298 195 0 80 -12 95 -288 373 l-267 267
267 268 c276 277 288 292 288 372 0 78 -53 159 -125 191 -48 22 -127 24 -175
3z"/>
<path d="M3485 3391 c-72 -32 -125 -113 -125 -191 0 -80 12 -95 288 -372 l267
-268 -267 -267 c-276 -278 -288 -293 -288 -373 0 -78 53 -159 125 -191 49 -23
123 -24 173 -4 48 20 714 683 744 740 28 54 28 136 0 190 -30 58 -696 720
-744 740 -50 20 -124 19 -173 -4z"/>
</g>
</svg>
