<?xml version="1.0" encoding="UTF-8"?>
<!DOCTYPE svg PUBLIC "-//W3C//DTD SVG 1.1//EN" "http://www.w3.org/Graphics/SVG/1.1/DTD/svg11.dtd">
<svg version="1.2" width="247.01mm" height="165.39mm" viewBox="0 0 24701 16539" preserveAspectRatio="xMidYMid" fill-rule="evenodd" stroke-width="28.222" stroke-linejoin="round" xmlns="http://www.w3.org/2000/svg" xmlns:ooo="http://xml.openoffice.org/svg/export" xmlns:xlink="http://www.w3.org/1999/xlink" xmlns:presentation="http://sun.com/xmlns/staroffice/presentation" xmlns:smil="http://www.w3.org/2001/SMIL20/" xmlns:anim="urn:oasis:names:tc:opendocument:xmlns:animation:1.0" xml:space="preserve">
 <defs class="ClipPathGroup">
  <clipPath id="presentation_clip_path" clipPathUnits="userSpaceOnUse">
   <rect x="0" y="0" width="24701" height="16539"/>
  </clipPath>
  <clipPath id="presentation_clip_path_shrink" clipPathUnits="userSpaceOnUse">
   <rect x="24" y="16" width="24652" height="16506"/>
  </clipPath>
 </defs>
 <defs class="TextShapeIndex">
  <g ooo:slide="id1" ooo:id-list="id3"/>
 </defs>
 <defs class="EmbeddedBulletChars">
  <g id="bullet-char-template-57356" transform="scale(0.00048828125,-0.00048828125)">
   <path d="M 580,1141 L 1163,571 580,0 -4,571 580,1141 Z"/>
  </g>
  <g id="bullet-char-template-57354" transform="scale(0.00048828125,-0.00048828125)">
   <path d="M 8,1128 L 1137,1128 1137,0 8,0 8,1128 Z"/>
  </g>
  <g id="bullet-char-template-10146" transform="scale(0.00048828125,-0.00048828125)">
   <path d="M 174,0 L 602,739 174,1481 1456,739 174,0 Z M 1358,739 L 309,1346 659,739 1358,739 Z"/>
  </g>
  <g id="bullet-char-template-10132" transform="scale(0.00048828125,-0.00048828125)">
   <path d="M 2015,739 L 1276,0 717,0 1260,543 174,543 174,936 1260,936 717,1481 1274,1481 2015,739 Z"/>
  </g>
  <g id="bullet-char-template-10007" transform="scale(0.00048828125,-0.00048828125)">
   <path d="M 0,-2 C -7,14 -16,27 -25,37 L 356,567 C 262,823 215,952 215,954 215,979 228,992 255,992 264,992 276,990 289,987 310,991 331,999 354,1012 L 381,999 492,748 772,1049 836,1024 860,1049 C 881,1039 901,1025 922,1006 886,937 835,863 770,784 769,783 710,716 594,584 L 774,223 C 774,196 753,168 711,139 L 727,119 C 717,90 699,76 672,76 641,76 570,178 457,381 L 164,-76 C 142,-110 111,-127 72,-127 30,-127 9,-110 8,-76 1,-67 -2,-52 -2,-32 -2,-23 -1,-13 0,-2 Z"/>
  </g>
  <g id="bullet-char-template-10004" transform="scale(0.00048828125,-0.00048828125)">
   <path d="M 285,-33 C 182,-33 111,30 74,156 52,228 41,333 41,471 41,549 55,616 82,672 116,743 169,778 240,778 293,778 328,747 346,684 L 369,508 C 377,444 397,411 428,410 L 1163,1116 C 1174,1127 1196,1133 1229,1133 1271,1133 1292,1118 1292,1087 L 1292,965 C 1292,929 1282,901 1262,881 L 442,47 C 390,-6 338,-33 285,-33 Z"/>
  </g>
  <g id="bullet-char-template-9679" transform="scale(0.00048828125,-0.00048828125)">
   <path d="M 813,0 C 632,0 489,54 383,161 276,268 223,411 223,592 223,773 276,916 383,1023 489,1130 632,1184 813,1184 992,1184 1136,1130 1245,1023 1353,916 1407,772 1407,592 1407,412 1353,268 1245,161 1136,54 992,0 813,0 Z"/>
  </g>
  <g id="bullet-char-template-8226" transform="scale(0.00048828125,-0.00048828125)">
   <path d="M 346,457 C 273,457 209,483 155,535 101,586 74,649 74,723 74,796 101,859 155,911 209,963 273,989 346,989 419,989 480,963 531,910 582,859 608,796 608,723 608,648 583,586 532,535 482,483 420,457 346,457 Z"/>
  </g>
  <g id="bullet-char-template-8211" transform="scale(0.00048828125,-0.00048828125)">
   <path d="M -4,459 L 1135,459 1135,606 -4,606 -4,459 Z"/>
  </g>
  <g id="bullet-char-template-61548" transform="scale(0.00048828125,-0.00048828125)">
   <path d="M 173,740 C 173,903 231,1043 346,1159 462,1274 601,1332 765,1332 928,1332 1067,1274 1183,1159 1299,1043 1357,903 1357,740 1357,577 1299,437 1183,322 1067,206 928,148 765,148 601,148 462,206 346,322 231,437 173,577 173,740 Z"/>
  </g>
 </defs>
 <defs class="TextEmbeddedBitmaps"/>
 <g>
  <g id="id2" class="Master_Slide">
   <g id="bg-id2" class="Background"/>
   <g id="bo-id2" class="BackgroundObjects"/>
  </g>
 </g>
 <g class="SlideGroup">
  <g>
   <g id="container-id1">
    <g id="id1" class="Slide" clip-path="url(#presentation_clip_path)">
     <g class="Page">
      <g class="Graphic">
       <title>Фоновый элемент
       </title>
       <g id="id3">
        <rect class="BoundingBox" stroke="none" fill="none" x="0" y="0" width="24701" height="16539"/>
        <defs>
         <clipPath id="clip_path_1" clipPathUnits="userSpaceOnUse">
          <path d="M 824,16525 C -234,14937 -234,14144 692,11763 2412,7794 12994,-5434 21461,2503 23577,4275 26223,10440 23577,16525 Z"/>
         </clipPath>
        </defs>
        <g clip-path="url(#clip_path_1)">
         <path fill="rgb(255,47,150)" stroke="none" d="M 24689,-4 L 24689,177 11,177 11,-4 24689,-4 Z"/>
         <path fill="rgb(255,48,149)" stroke="none" d="M 24689,142 L 24689,323 11,323 11,142 24689,142 Z"/>
         <path fill="rgb(255,49,149)" stroke="none" d="M 24689,288 L 24689,469 11,469 11,288 24689,288 Z"/>
         <path fill="rgb(255,50,148)" stroke="none" d="M 24689,434 L 24689,615 11,615 11,434 24689,434 Z"/>
         <path fill="rgb(255,50,148)" stroke="none" d="M 24689,580 L 24689,762 11,762 11,580 24689,580 Z"/>
         <path fill="rgb(255,51,147)" stroke="none" d="M 24689,726 L 24689,908 11,908 11,726 24689,726 Z"/>
         <path fill="rgb(255,52,147)" stroke="none" d="M 24689,872 L 24689,1054 11,1054 11,872 24689,872 Z"/>
         <path fill="rgb(255,53,146)" stroke="none" d="M 24689,1018 L 24689,1200 11,1200 11,1018 24689,1018 Z"/>
         <path fill="rgb(255,54,146)" stroke="none" d="M 24689,1164 L 24689,1346 11,1346 11,1164 24689,1164 Z"/>
         <path fill="rgb(255,55,145)" stroke="none" d="M 24689,1311 L 24689,1492 11,1492 11,1311 24689,1311 Z"/>
         <path fill="rgb(255,55,145)" stroke="none" d="M 24689,1457 L 24689,1638 11,1638 11,1457 24689,1457 Z"/>
         <path fill="rgb(255,56,144)" stroke="none" d="M 24689,1603 L 24689,1784 11,1784 11,1603 24689,1603 Z"/>
         <path fill="rgb(255,57,144)" stroke="none" d="M 24689,1749 L 24689,1930 11,1930 11,1749 24689,1749 Z"/>
         <path fill="rgb(255,58,143)" stroke="none" d="M 24689,1895 L 24689,2077 11,2077 11,1895 24689,1895 Z"/>
         <path fill="rgb(255,59,143)" stroke="none" d="M 24689,2041 L 24689,2223 11,2223 11,2041 24689,2041 Z"/>
         <path fill="rgb(255,60,142)" stroke="none" d="M 24689,2187 L 24689,2369 11,2369 11,2187 24689,2187 Z"/>
         <path fill="rgb(255,61,142)" stroke="none" d="M 24689,2333 L 24689,2515 11,2515 11,2333 24689,2333 Z"/>
         <path fill="rgb(255,61,141)" stroke="none" d="M 24689,2480 L 24689,2661 11,2661 11,2480 24689,2480 Z"/>
         <path fill="rgb(255,62,140)" stroke="none" d="M 24689,2626 L 24689,2807 11,2807 11,2626 24689,2626 Z"/>
         <path fill="rgb(255,63,140)" stroke="none" d="M 24689,2772 L 24689,2953 11,2953 11,2772 24689,2772 Z"/>
         <path fill="rgb(255,64,139)" stroke="none" d="M 24689,2918 L 24689,3099 11,3099 11,2918 24689,2918 Z"/>
         <path fill="rgb(255,65,139)" stroke="none" d="M 24689,3064 L 24689,3246 11,3246 11,3064 24689,3064 Z"/>
         <path fill="rgb(255,66,138)" stroke="none" d="M 24689,3210 L 24689,3392 11,3392 11,3210 24689,3210 Z"/>
         <path fill="rgb(255,67,138)" stroke="none" d="M 24689,3356 L 24689,3538 11,3538 11,3356 24689,3356 Z"/>
         <path fill="rgb(255,67,137)" stroke="none" d="M 24689,3502 L 24689,3684 11,3684 11,3502 24689,3502 Z"/>
         <path fill="rgb(255,68,137)" stroke="none" d="M 24689,3649 L 24689,3830 11,3830 11,3649 24689,3649 Z"/>
         <path fill="rgb(255,69,136)" stroke="none" d="M 24689,3795 L 24689,3976 11,3976 11,3795 24689,3795 Z"/>
         <path fill="rgb(255,70,136)" stroke="none" d="M 24689,3941 L 24689,4122 11,4122 11,3941 24689,3941 Z"/>
         <path fill="rgb(255,71,135)" stroke="none" d="M 24689,4087 L 24689,4268 11,4268 11,4087 24689,4087 Z"/>
         <path fill="rgb(255,72,135)" stroke="none" d="M 24689,4233 L 24689,4415 11,4415 11,4233 24689,4233 Z"/>
         <path fill="rgb(255,72,134)" stroke="none" d="M 24689,4379 L 24689,4561 11,4561 11,4379 24689,4379 Z"/>
         <path fill="rgb(255,73,134)" stroke="none" d="M 24689,4525 L 24689,4707 11,4707 11,4525 24689,4525 Z"/>
         <path fill="rgb(255,74,133)" stroke="none" d="M 24689,4671 L 24689,4853 11,4853 11,4671 24689,4671 Z"/>
         <path fill="rgb(255,75,132)" stroke="none" d="M 24689,4817 L 24689,4999 11,4999 11,4817 24689,4817 Z"/>
         <path fill="rgb(255,76,132)" stroke="none" d="M 24689,4964 L 24689,5145 11,5145 11,4964 24689,4964 Z"/>
         <path fill="rgb(255,77,131)" stroke="none" d="M 24689,5110 L 24689,5291 11,5291 11,5110 24689,5110 Z"/>
         <path fill="rgb(255,78,131)" stroke="none" d="M 24689,5256 L 24689,5437 11,5437 11,5256 24689,5256 Z"/>
         <path fill="rgb(255,78,130)" stroke="none" d="M 24689,5402 L 24689,5583 11,5583 11,5402 24689,5402 Z"/>
         <path fill="rgb(255,79,130)" stroke="none" d="M 24689,5548 L 24689,5730 11,5730 11,5548 24689,5548 Z"/>
         <path fill="rgb(255,80,129)" stroke="none" d="M 24689,5694 L 24689,5876 11,5876 11,5694 24689,5694 Z"/>
         <path fill="rgb(255,81,129)" stroke="none" d="M 24689,5840 L 24689,6022 11,6022 11,5840 24689,5840 Z"/>
         <path fill="rgb(255,82,128)" stroke="none" d="M 24689,5986 L 24689,6168 11,6168 11,5986 24689,5986 Z"/>
         <path fill="rgb(255,83,128)" stroke="none" d="M 24689,6133 L 24689,6314 11,6314 11,6133 24689,6133 Z"/>
         <path fill="rgb(255,84,127)" stroke="none" d="M 24689,6279 L 24689,6460 11,6460 11,6279 24689,6279 Z"/>
         <path fill="rgb(255,84,127)" stroke="none" d="M 24689,6425 L 24689,6606 11,6606 11,6425 24689,6425 Z"/>
         <path fill="rgb(255,85,126)" stroke="none" d="M 24689,6571 L 24689,6752 11,6752 11,6571 24689,6571 Z"/>
         <path fill="rgb(255,86,126)" stroke="none" d="M 24689,6717 L 24689,6899 11,6899 11,6717 24689,6717 Z"/>
         <path fill="rgb(255,87,125)" stroke="none" d="M 24689,6863 L 24689,7045 11,7045 11,6863 24689,6863 Z"/>
         <path fill="rgb(255,88,125)" stroke="none" d="M 24689,7009 L 24689,7191 11,7191 11,7009 24689,7009 Z"/>
         <path fill="rgb(255,89,124)" stroke="none" d="M 24689,7155 L 24689,7337 11,7337 11,7155 24689,7155 Z"/>
         <path fill="rgb(255,89,123)" stroke="none" d="M 24689,7302 L 24689,7483 11,7483 11,7302 24689,7302 Z"/>
         <path fill="rgb(255,90,123)" stroke="none" d="M 24689,7448 L 24689,7629 11,7629 11,7448 24689,7448 Z"/>
         <path fill="rgb(255,91,122)" stroke="none" d="M 24689,7594 L 24689,7775 11,7775 11,7594 24689,7594 Z"/>
         <path fill="rgb(255,92,122)" stroke="none" d="M 24689,7740 L 24689,7921 11,7921 11,7740 24689,7740 Z"/>
         <path fill="rgb(255,93,121)" stroke="none" d="M 24689,7886 L 24689,8068 11,8068 11,7886 24689,7886 Z"/>
         <path fill="rgb(255,94,121)" stroke="none" d="M 24689,8032 L 24689,8214 11,8214 11,8032 24689,8032 Z"/>
         <path fill="rgb(255,95,120)" stroke="none" d="M 24689,8178 L 24689,8360 11,8360 11,8178 24689,8178 Z"/>
         <path fill="rgb(255,95,120)" stroke="none" d="M 24689,8324 L 24689,8506 11,8506 11,8324 24689,8324 Z"/>
         <path fill="rgb(255,96,119)" stroke="none" d="M 24689,8470 L 24689,8652 11,8652 11,8470 24689,8470 Z"/>
         <path fill="rgb(255,97,119)" stroke="none" d="M 24689,8617 L 24689,8798 11,8798 11,8617 24689,8617 Z"/>
         <path fill="rgb(255,98,118)" stroke="none" d="M 24689,8763 L 24689,8944 11,8944 11,8763 24689,8763 Z"/>
         <path fill="rgb(255,99,118)" stroke="none" d="M 24689,8909 L 24689,9090 11,9090 11,8909 24689,8909 Z"/>
         <path fill="rgb(255,100,117)" stroke="none" d="M 24689,9055 L 24689,9236 11,9236 11,9055 24689,9055 Z"/>
         <path fill="rgb(255,101,117)" stroke="none" d="M 24689,9201 L 24689,9383 11,9383 11,9201 24689,9201 Z"/>
         <path fill="rgb(255,101,116)" stroke="none" d="M 24689,9347 L 24689,9529 11,9529 11,9347 24689,9347 Z"/>
         <path fill="rgb(255,102,115)" stroke="none" d="M 24689,9493 L 24689,9675 11,9675 11,9493 24689,9493 Z"/>
         <path fill="rgb(255,103,115)" stroke="none" d="M 24689,9639 L 24689,9821 11,9821 11,9639 24689,9639 Z"/>
         <path fill="rgb(255,104,114)" stroke="none" d="M 24689,9786 L 24689,9967 11,9967 11,9786 24689,9786 Z"/>
         <path fill="rgb(255,105,114)" stroke="none" d="M 24689,9932 L 24689,10113 11,10113 11,9932 24689,9932 Z"/>
         <path fill="rgb(255,106,113)" stroke="none" d="M 24689,10078 L 24689,10259 11,10259 11,10078 24689,10078 Z"/>
         <path fill="rgb(255,106,113)" stroke="none" d="M 24689,10224 L 24689,10405 11,10405 11,10224 24689,10224 Z"/>
         <path fill="rgb(255,107,112)" stroke="none" d="M 24689,10370 L 24689,10552 11,10552 11,10370 24689,10370 Z"/>
         <path fill="rgb(255,108,112)" stroke="none" d="M 24689,10516 L 24689,10698 11,10698 11,10516 24689,10516 Z"/>
         <path fill="rgb(255,109,111)" stroke="none" d="M 24689,10662 L 24689,10844 11,10844 11,10662 24689,10662 Z"/>
         <path fill="rgb(255,110,111)" stroke="none" d="M 24689,10808 L 24689,10990 11,10990 11,10808 24689,10808 Z"/>
         <path fill="rgb(255,111,110)" stroke="none" d="M 24689,10955 L 24689,11136 11,11136 11,10955 24689,10955 Z"/>
         <path fill="rgb(255,112,110)" stroke="none" d="M 24689,11101 L 24689,11282 11,11282 11,11101 24689,11101 Z"/>
         <path fill="rgb(255,112,109)" stroke="none" d="M 24689,11247 L 24689,11428 11,11428 11,11247 24689,11247 Z"/>
         <path fill="rgb(255,113,109)" stroke="none" d="M 24689,11393 L 24689,11574 11,11574 11,11393 24689,11393 Z"/>
         <path fill="rgb(255,114,108)" stroke="none" d="M 24689,11539 L 24689,11721 11,11721 11,11539 24689,11539 Z"/>
         <path fill="rgb(255,115,108)" stroke="none" d="M 24689,11685 L 24689,11867 11,11867 11,11685 24689,11685 Z"/>
         <path fill="rgb(255,116,107)" stroke="none" d="M 24689,11831 L 24689,12013 11,12013 11,11831 24689,11831 Z"/>
         <path fill="rgb(255,117,106)" stroke="none" d="M 24689,11977 L 24689,12159 11,12159 11,11977 24689,11977 Z"/>
         <path fill="rgb(255,118,106)" stroke="none" d="M 24689,12123 L 24689,12305 11,12305 11,12123 24689,12123 Z"/>
         <path fill="rgb(255,118,105)" stroke="none" d="M 24689,12270 L 24689,12451 11,12451 11,12270 24689,12270 Z"/>
         <path fill="rgb(255,119,105)" stroke="none" d="M 24689,12416 L 24689,12597 11,12597 11,12416 24689,12416 Z"/>
         <path fill="rgb(255,120,104)" stroke="none" d="M 24689,12562 L 24689,12743 11,12743 11,12562 24689,12562 Z"/>
         <path fill="rgb(255,121,104)" stroke="none" d="M 24689,12708 L 24689,12889 11,12889 11,12708 24689,12708 Z"/>
         <path fill="rgb(255,122,103)" stroke="none" d="M 24689,12854 L 24689,13036 11,13036 11,12854 24689,12854 Z"/>
         <path fill="rgb(255,123,103)" stroke="none" d="M 24689,13000 L 24689,13182 11,13182 11,13000 24689,13000 Z"/>
         <path fill="rgb(255,123,102)" stroke="none" d="M 24689,13146 L 24689,13328 11,13328 11,13146 24689,13146 Z"/>
         <path fill="rgb(255,124,102)" stroke="none" d="M 24689,13292 L 24689,13474 11,13474 11,13292 24689,13292 Z"/>
         <path fill="rgb(255,125,101)" stroke="none" d="M 24689,13439 L 24689,13620 11,13620 11,13439 24689,13439 Z"/>
         <path fill="rgb(255,126,101)" stroke="none" d="M 24689,13585 L 24689,13766 11,13766 11,13585 24689,13585 Z"/>
         <path fill="rgb(255,127,100)" stroke="none" d="M 24689,13731 L 24689,13912 11,13912 11,13731 24689,13731 Z"/>
         <path fill="rgb(255,128,100)" stroke="none" d="M 24689,13877 L 24689,14058 11,14058 11,13877 24689,13877 Z"/>
         <path fill="rgb(255,129,99)" stroke="none" d="M 24689,14023 L 24689,14205 11,14205 11,14023 24689,14023 Z"/>
         <path fill="rgb(255,129,98)" stroke="none" d="M 24689,14169 L 24689,14351 11,14351 11,14169 24689,14169 Z"/>
         <path fill="rgb(255,130,98)" stroke="none" d="M 24689,14315 L 24689,14497 11,14497 11,14315 24689,14315 Z"/>
         <path fill="rgb(255,131,97)" stroke="none" d="M 24689,14461 L 24689,14643 11,14643 11,14461 24689,14461 Z"/>
         <path fill="rgb(255,132,97)" stroke="none" d="M 24689,14608 L 24689,14789 11,14789 11,14608 24689,14608 Z"/>
         <path fill="rgb(255,133,96)" stroke="none" d="M 24689,14754 L 24689,14935 11,14935 11,14754 24689,14754 Z"/>
         <path fill="rgb(255,134,96)" stroke="none" d="M 24689,14900 L 24689,15081 11,15081 11,14900 24689,14900 Z"/>
         <path fill="rgb(255,135,95)" stroke="none" d="M 24689,15046 L 24689,15227 11,15227 11,15046 24689,15046 Z"/>
         <path fill="rgb(255,135,95)" stroke="none" d="M 24689,15192 L 24689,15374 11,15374 11,15192 24689,15192 Z"/>
         <path fill="rgb(255,136,94)" stroke="none" d="M 24689,15338 L 24689,15520 11,15520 11,15338 24689,15338 Z"/>
         <path fill="rgb(255,137,94)" stroke="none" d="M 24689,15484 L 24689,15666 11,15666 11,15484 24689,15484 Z"/>
         <path fill="rgb(255,138,93)" stroke="none" d="M 24689,15630 L 24689,15812 11,15812 11,15630 24689,15630 Z"/>
         <path fill="rgb(255,139,93)" stroke="none" d="M 24689,15776 L 24689,15958 11,15958 11,15776 24689,15776 Z"/>
         <path fill="rgb(255,140,92)" stroke="none" d="M 24689,15923 L 24689,16104 11,16104 11,15923 24689,15923 Z"/>
         <path fill="rgb(255,140,92)" stroke="none" d="M 24689,16069 L 24689,16250 11,16250 11,16069 24689,16069 Z"/>
         <path fill="rgb(255,141,91)" stroke="none" d="M 24689,16215 L 24689,16396 11,16396 11,16215 24689,16215 Z"/>
         <path fill="rgb(255,142,91)" stroke="none" d="M 24689,16361 L 24689,16542 11,16542 11,16361 24689,16361 Z"/>
        </g>
        <defs>
         <clipPath id="clip_path_2" clipPathUnits="userSpaceOnUse">
          <path d="M 824,16525 C -234,14937 -234,14144 692,11763 2412,7794 12994,-5434 21461,2503 23577,4275 26223,10440 23577,16525 Z"/>
         </clipPath>
        </defs>
        <g clip-path="url(#clip_path_2)">
         <path fill="rgb(255,47,150)" stroke="none" d="M 24689,-4 L 24689,177 11,177 11,-4 24689,-4 Z"/>
         <path fill="rgb(255,48,149)" stroke="none" d="M 24689,142 L 24689,323 11,323 11,142 24689,142 Z"/>
         <path fill="rgb(255,49,149)" stroke="none" d="M 24689,288 L 24689,469 11,469 11,288 24689,288 Z"/>
         <path fill="rgb(255,50,148)" stroke="none" d="M 24689,434 L 24689,615 11,615 11,434 24689,434 Z"/>
         <path fill="rgb(255,50,148)" stroke="none" d="M 24689,580 L 24689,762 11,762 11,580 24689,580 Z"/>
         <path fill="rgb(255,51,147)" stroke="none" d="M 24689,726 L 24689,908 11,908 11,726 24689,726 Z"/>
         <path fill="rgb(255,52,147)" stroke="none" d="M 24689,872 L 24689,1054 11,1054 11,872 24689,872 Z"/>
         <path fill="rgb(255,53,146)" stroke="none" d="M 24689,1018 L 24689,1200 11,1200 11,1018 24689,1018 Z"/>
         <path fill="rgb(255,54,146)" stroke="none" d="M 24689,1164 L 24689,1346 11,1346 11,1164 24689,1164 Z"/>
         <path fill="rgb(255,55,145)" stroke="none" d="M 24689,1311 L 24689,1492 11,1492 11,1311 24689,1311 Z"/>
         <path fill="rgb(255,55,145)" stroke="none" d="M 24689,1457 L 24689,1638 11,1638 11,1457 24689,1457 Z"/>
         <path fill="rgb(255,56,144)" stroke="none" d="M 24689,1603 L 24689,1784 11,1784 11,1603 24689,1603 Z"/>
         <path fill="rgb(255,57,144)" stroke="none" d="M 24689,1749 L 24689,1930 11,1930 11,1749 24689,1749 Z"/>
         <path fill="rgb(255,58,143)" stroke="none" d="M 24689,1895 L 24689,2077 11,2077 11,1895 24689,1895 Z"/>
         <path fill="rgb(255,59,143)" stroke="none" d="M 24689,2041 L 24689,2223 11,2223 11,2041 24689,2041 Z"/>
         <path fill="rgb(255,60,142)" stroke="none" d="M 24689,2187 L 24689,2369 11,2369 11,2187 24689,2187 Z"/>
         <path fill="rgb(255,61,142)" stroke="none" d="M 24689,2333 L 24689,2515 11,2515 11,2333 24689,2333 Z"/>
         <path fill="rgb(255,61,141)" stroke="none" d="M 24689,2480 L 24689,2661 11,2661 11,2480 24689,2480 Z"/>
         <path fill="rgb(255,62,140)" stroke="none" d="M 24689,2626 L 24689,2807 11,2807 11,2626 24689,2626 Z"/>
         <path fill="rgb(255,63,140)" stroke="none" d="M 24689,2772 L 24689,2953 11,2953 11,2772 24689,2772 Z"/>
         <path fill="rgb(255,64,139)" stroke="none" d="M 24689,2918 L 24689,3099 11,3099 11,2918 24689,2918 Z"/>
         <path fill="rgb(255,65,139)" stroke="none" d="M 24689,3064 L 24689,3246 11,3246 11,3064 24689,3064 Z"/>
         <path fill="rgb(255,66,138)" stroke="none" d="M 24689,3210 L 24689,3392 11,3392 11,3210 24689,3210 Z"/>
         <path fill="rgb(255,67,138)" stroke="none" d="M 24689,3356 L 24689,3538 11,3538 11,3356 24689,3356 Z"/>
         <path fill="rgb(255,67,137)" stroke="none" d="M 24689,3502 L 24689,3684 11,3684 11,3502 24689,3502 Z"/>
         <path fill="rgb(255,68,137)" stroke="none" d="M 24689,3649 L 24689,3830 11,3830 11,3649 24689,3649 Z"/>
         <path fill="rgb(255,69,136)" stroke="none" d="M 24689,3795 L 24689,3976 11,3976 11,3795 24689,3795 Z"/>
         <path fill="rgb(255,70,136)" stroke="none" d="M 24689,3941 L 24689,4122 11,4122 11,3941 24689,3941 Z"/>
         <path fill="rgb(255,71,135)" stroke="none" d="M 24689,4087 L 24689,4268 11,4268 11,4087 24689,4087 Z"/>
         <path fill="rgb(255,72,135)" stroke="none" d="M 24689,4233 L 24689,4415 11,4415 11,4233 24689,4233 Z"/>
         <path fill="rgb(255,72,134)" stroke="none" d="M 24689,4379 L 24689,4561 11,4561 11,4379 24689,4379 Z"/>
         <path fill="rgb(255,73,134)" stroke="none" d="M 24689,4525 L 24689,4707 11,4707 11,4525 24689,4525 Z"/>
         <path fill="rgb(255,74,133)" stroke="none" d="M 24689,4671 L 24689,4853 11,4853 11,4671 24689,4671 Z"/>
         <path fill="rgb(255,75,132)" stroke="none" d="M 24689,4817 L 24689,4999 11,4999 11,4817 24689,4817 Z"/>
         <path fill="rgb(255,76,132)" stroke="none" d="M 24689,4964 L 24689,5145 11,5145 11,4964 24689,4964 Z"/>
         <path fill="rgb(255,77,131)" stroke="none" d="M 24689,5110 L 24689,5291 11,5291 11,5110 24689,5110 Z"/>
         <path fill="rgb(255,78,131)" stroke="none" d="M 24689,5256 L 24689,5437 11,5437 11,5256 24689,5256 Z"/>
         <path fill="rgb(255,78,130)" stroke="none" d="M 24689,5402 L 24689,5583 11,5583 11,5402 24689,5402 Z"/>
         <path fill="rgb(255,79,130)" stroke="none" d="M 24689,5548 L 24689,5730 11,5730 11,5548 24689,5548 Z"/>
         <path fill="rgb(255,80,129)" stroke="none" d="M 24689,5694 L 24689,5876 11,5876 11,5694 24689,5694 Z"/>
         <path fill="rgb(255,81,129)" stroke="none" d="M 24689,5840 L 24689,6022 11,6022 11,5840 24689,5840 Z"/>
         <path fill="rgb(255,82,128)" stroke="none" d="M 24689,5986 L 24689,6168 11,6168 11,5986 24689,5986 Z"/>
         <path fill="rgb(255,83,128)" stroke="none" d="M 24689,6133 L 24689,6314 11,6314 11,6133 24689,6133 Z"/>
         <path fill="rgb(255,84,127)" stroke="none" d="M 24689,6279 L 24689,6460 11,6460 11,6279 24689,6279 Z"/>
         <path fill="rgb(255,84,127)" stroke="none" d="M 24689,6425 L 24689,6606 11,6606 11,6425 24689,6425 Z"/>
         <path fill="rgb(255,85,126)" stroke="none" d="M 24689,6571 L 24689,6752 11,6752 11,6571 24689,6571 Z"/>
         <path fill="rgb(255,86,126)" stroke="none" d="M 24689,6717 L 24689,6899 11,6899 11,6717 24689,6717 Z"/>
         <path fill="rgb(255,87,125)" stroke="none" d="M 24689,6863 L 24689,7045 11,7045 11,6863 24689,6863 Z"/>
         <path fill="rgb(255,88,125)" stroke="none" d="M 24689,7009 L 24689,7191 11,7191 11,7009 24689,7009 Z"/>
         <path fill="rgb(255,89,124)" stroke="none" d="M 24689,7155 L 24689,7337 11,7337 11,7155 24689,7155 Z"/>
         <path fill="rgb(255,89,123)" stroke="none" d="M 24689,7302 L 24689,7483 11,7483 11,7302 24689,7302 Z"/>
         <path fill="rgb(255,90,123)" stroke="none" d="M 24689,7448 L 24689,7629 11,7629 11,7448 24689,7448 Z"/>
         <path fill="rgb(255,91,122)" stroke="none" d="M 24689,7594 L 24689,7775 11,7775 11,7594 24689,7594 Z"/>
         <path fill="rgb(255,92,122)" stroke="none" d="M 24689,7740 L 24689,7921 11,7921 11,7740 24689,7740 Z"/>
         <path fill="rgb(255,93,121)" stroke="none" d="M 24689,7886 L 24689,8068 11,8068 11,7886 24689,7886 Z"/>
         <path fill="rgb(255,94,121)" stroke="none" d="M 24689,8032 L 24689,8214 11,8214 11,8032 24689,8032 Z"/>
         <path fill="rgb(255,95,120)" stroke="none" d="M 24689,8178 L 24689,8360 11,8360 11,8178 24689,8178 Z"/>
         <path fill="rgb(255,95,120)" stroke="none" d="M 24689,8324 L 24689,8506 11,8506 11,8324 24689,8324 Z"/>
         <path fill="rgb(255,96,119)" stroke="none" d="M 24689,8470 L 24689,8652 11,8652 11,8470 24689,8470 Z"/>
         <path fill="rgb(255,97,119)" stroke="none" d="M 24689,8617 L 24689,8798 11,8798 11,8617 24689,8617 Z"/>
         <path fill="rgb(255,98,118)" stroke="none" d="M 24689,8763 L 24689,8944 11,8944 11,8763 24689,8763 Z"/>
         <path fill="rgb(255,99,118)" stroke="none" d="M 24689,8909 L 24689,9090 11,9090 11,8909 24689,8909 Z"/>
         <path fill="rgb(255,100,117)" stroke="none" d="M 24689,9055 L 24689,9236 11,9236 11,9055 24689,9055 Z"/>
         <path fill="rgb(255,101,117)" stroke="none" d="M 24689,9201 L 24689,9383 11,9383 11,9201 24689,9201 Z"/>
         <path fill="rgb(255,101,116)" stroke="none" d="M 24689,9347 L 24689,9529 11,9529 11,9347 24689,9347 Z"/>
         <path fill="rgb(255,102,115)" stroke="none" d="M 24689,9493 L 24689,9675 11,9675 11,9493 24689,9493 Z"/>
         <path fill="rgb(255,103,115)" stroke="none" d="M 24689,9639 L 24689,9821 11,9821 11,9639 24689,9639 Z"/>
         <path fill="rgb(255,104,114)" stroke="none" d="M 24689,9786 L 24689,9967 11,9967 11,9786 24689,9786 Z"/>
         <path fill="rgb(255,105,114)" stroke="none" d="M 24689,9932 L 24689,10113 11,10113 11,9932 24689,9932 Z"/>
         <path fill="rgb(255,106,113)" stroke="none" d="M 24689,10078 L 24689,10259 11,10259 11,10078 24689,10078 Z"/>
         <path fill="rgb(255,106,113)" stroke="none" d="M 24689,10224 L 24689,10405 11,10405 11,10224 24689,10224 Z"/>
         <path fill="rgb(255,107,112)" stroke="none" d="M 24689,10370 L 24689,10552 11,10552 11,10370 24689,10370 Z"/>
         <path fill="rgb(255,108,112)" stroke="none" d="M 24689,10516 L 24689,10698 11,10698 11,10516 24689,10516 Z"/>
         <path fill="rgb(255,109,111)" stroke="none" d="M 24689,10662 L 24689,10844 11,10844 11,10662 24689,10662 Z"/>
         <path fill="rgb(255,110,111)" stroke="none" d="M 24689,10808 L 24689,10990 11,10990 11,10808 24689,10808 Z"/>
         <path fill="rgb(255,111,110)" stroke="none" d="M 24689,10955 L 24689,11136 11,11136 11,10955 24689,10955 Z"/>
         <path fill="rgb(255,112,110)" stroke="none" d="M 24689,11101 L 24689,11282 11,11282 11,11101 24689,11101 Z"/>
         <path fill="rgb(255,112,109)" stroke="none" d="M 24689,11247 L 24689,11428 11,11428 11,11247 24689,11247 Z"/>
         <path fill="rgb(255,113,109)" stroke="none" d="M 24689,11393 L 24689,11574 11,11574 11,11393 24689,11393 Z"/>
         <path fill="rgb(255,114,108)" stroke="none" d="M 24689,11539 L 24689,11721 11,11721 11,11539 24689,11539 Z"/>
         <path fill="rgb(255,115,108)" stroke="none" d="M 24689,11685 L 24689,11867 11,11867 11,11685 24689,11685 Z"/>
         <path fill="rgb(255,116,107)" stroke="none" d="M 24689,11831 L 24689,12013 11,12013 11,11831 24689,11831 Z"/>
         <path fill="rgb(255,117,106)" stroke="none" d="M 24689,11977 L 24689,12159 11,12159 11,11977 24689,11977 Z"/>
         <path fill="rgb(255,118,106)" stroke="none" d="M 24689,12123 L 24689,12305 11,12305 11,12123 24689,12123 Z"/>
         <path fill="rgb(255,118,105)" stroke="none" d="M 24689,12270 L 24689,12451 11,12451 11,12270 24689,12270 Z"/>
         <path fill="rgb(255,119,105)" stroke="none" d="M 24689,12416 L 24689,12597 11,12597 11,12416 24689,12416 Z"/>
         <path fill="rgb(255,120,104)" stroke="none" d="M 24689,12562 L 24689,12743 11,12743 11,12562 24689,12562 Z"/>
         <path fill="rgb(255,121,104)" stroke="none" d="M 24689,12708 L 24689,12889 11,12889 11,12708 24689,12708 Z"/>
         <path fill="rgb(255,122,103)" stroke="none" d="M 24689,12854 L 24689,13036 11,13036 11,12854 24689,12854 Z"/>
         <path fill="rgb(255,123,103)" stroke="none" d="M 24689,13000 L 24689,13182 11,13182 11,13000 24689,13000 Z"/>
         <path fill="rgb(255,123,102)" stroke="none" d="M 24689,13146 L 24689,13328 11,13328 11,13146 24689,13146 Z"/>
         <path fill="rgb(255,124,102)" stroke="none" d="M 24689,13292 L 24689,13474 11,13474 11,13292 24689,13292 Z"/>
         <path fill="rgb(255,125,101)" stroke="none" d="M 24689,13439 L 24689,13620 11,13620 11,13439 24689,13439 Z"/>
         <path fill="rgb(255,126,101)" stroke="none" d="M 24689,13585 L 24689,13766 11,13766 11,13585 24689,13585 Z"/>
         <path fill="rgb(255,127,100)" stroke="none" d="M 24689,13731 L 24689,13912 11,13912 11,13731 24689,13731 Z"/>
         <path fill="rgb(255,128,100)" stroke="none" d="M 24689,13877 L 24689,14058 11,14058 11,13877 24689,13877 Z"/>
         <path fill="rgb(255,129,99)" stroke="none" d="M 24689,14023 L 24689,14205 11,14205 11,14023 24689,14023 Z"/>
         <path fill="rgb(255,129,98)" stroke="none" d="M 24689,14169 L 24689,14351 11,14351 11,14169 24689,14169 Z"/>
         <path fill="rgb(255,130,98)" stroke="none" d="M 24689,14315 L 24689,14497 11,14497 11,14315 24689,14315 Z"/>
         <path fill="rgb(255,131,97)" stroke="none" d="M 24689,14461 L 24689,14643 11,14643 11,14461 24689,14461 Z"/>
         <path fill="rgb(255,132,97)" stroke="none" d="M 24689,14608 L 24689,14789 11,14789 11,14608 24689,14608 Z"/>
         <path fill="rgb(255,133,96)" stroke="none" d="M 24689,14754 L 24689,14935 11,14935 11,14754 24689,14754 Z"/>
         <path fill="rgb(255,134,96)" stroke="none" d="M 24689,14900 L 24689,15081 11,15081 11,14900 24689,14900 Z"/>
         <path fill="rgb(255,135,95)" stroke="none" d="M 24689,15046 L 24689,15227 11,15227 11,15046 24689,15046 Z"/>
         <path fill="rgb(255,135,95)" stroke="none" d="M 24689,15192 L 24689,15374 11,15374 11,15192 24689,15192 Z"/>
         <path fill="rgb(255,136,94)" stroke="none" d="M 24689,15338 L 24689,15520 11,15520 11,15338 24689,15338 Z"/>
         <path fill="rgb(255,137,94)" stroke="none" d="M 24689,15484 L 24689,15666 11,15666 11,15484 24689,15484 Z"/>
         <path fill="rgb(255,138,93)" stroke="none" d="M 24689,15630 L 24689,15812 11,15812 11,15630 24689,15630 Z"/>
         <path fill="rgb(255,139,93)" stroke="none" d="M 24689,15776 L 24689,15958 11,15958 11,15776 24689,15776 Z"/>
         <path fill="rgb(255,140,92)" stroke="none" d="M 24689,15923 L 24689,16104 11,16104 11,15923 24689,15923 Z"/>
         <path fill="rgb(255,140,92)" stroke="none" d="M 24689,16069 L 24689,16250 11,16250 11,16069 24689,16069 Z"/>
         <path fill="rgb(255,141,91)" stroke="none" d="M 24689,16215 L 24689,16396 11,16396 11,16215 24689,16215 Z"/>
         <path fill="rgb(255,142,91)" stroke="none" d="M 24689,16361 L 24689,16542 11,16542 11,16361 24689,16361 Z"/>
        </g>
       </g>
      </g>
     </g>
    </g>
   </g>
  </g>
 </g>
</svg>